<svg width="120" height="120" viewBox="0 0 120 120" xmlns="http://www.w3.org/2000/svg">
  <!-- Ground -->
  <rect x="0" y="100" width="120" height="20" fill="#8B4513" />
  
  <!-- Trunk -->
  <path d="M60 100 L60 30" stroke="#8B4513" stroke-width="8" fill="none" />
  
  <!-- Branches -->
  <path d="M60 80 L40 70" stroke="#8B4513" stroke-width="4" fill="none" />
  <path d="M60 80 L80 70" stroke="#8B4513" stroke-width="4" fill="none" />
  <path d="M60 70 L40 60" stroke="#8B4513" stroke-width="4" fill="none" />
  <path d="M60 70 L80 60" stroke="#8B4513" stroke-width="4" fill="none" />
  <path d="M60 60 L40 50" stroke="#8B4513" stroke-width="4" fill="none" />
  <path d="M60 60 L80 50" stroke="#8B4513" stroke-width="4" fill="none" />
  
  <!-- Leaves -->
  <path d="M40 70 L30 60 L40 65 L50 60 Z" fill="#228B22" />
  <path d="M80 70 L70 60 L80 65 L90 60 Z" fill="#228B22" />
  <path d="M40 60 L30 50 L40 55 L50 50 Z" fill="#228B22" />
  <path d="M80 60 L70 50 L80 55 L90 50 Z" fill="#228B22" />
  <path d="M40 50 L30 40 L40 45 L50 40 Z" fill="#228B22" />
  <path d="M80 50 L70 40 L80 45 L90 40 Z" fill="#228B22" />
  <path d="M60 30 L50 20 L60 25 L70 20 Z" fill="#228B22" />
</svg> 