<svg width="120" height="120" viewBox="0 0 120 120" xmlns="http://www.w3.org/2000/svg">
  <!-- Ground -->
  <rect x="0" y="100" width="120" height="20" fill="#8B4513" />
  
  <!-- Trunk -->
  <path d="M60 100 L60 20" stroke="#8B4513" stroke-width="10" fill="none" />
  
  <!-- Branches -->
  <path d="M60 90 L30 80" stroke="#8B4513" stroke-width="5" fill="none" />
  <path d="M60 90 L90 80" stroke="#8B4513" stroke-width="5" fill="none" />
  <path d="M60 80 L30 70" stroke="#8B4513" stroke-width="5" fill="none" />
  <path d="M60 80 L90 70" stroke="#8B4513" stroke-width="5" fill="none" />
  <path d="M60 70 L30 60" stroke="#8B4513" stroke-width="5" fill="none" />
  <path d="M60 70 L90 60" stroke="#8B4513" stroke-width="5" fill="none" />
  <path d="M60 60 L30 50" stroke="#8B4513" stroke-width="5" fill="none" />
  <path d="M60 60 L90 50" stroke="#8B4513" stroke-width="5" fill="none" />
  <path d="M60 50 L30 40" stroke="#8B4513" stroke-width="5" fill="none" />
  <path d="M60 50 L90 40" stroke="#8B4513" stroke-width="5" fill="none" />
  
  <!-- Leaves -->
  <path d="M30 80 L20 70 L30 75 L40 70 Z" fill="#228B22" />
  <path d="M90 80 L80 70 L90 75 L100 70 Z" fill="#228B22" />
  <path d="M30 70 L20 60 L30 65 L40 60 Z" fill="#228B22" />
  <path d="M90 70 L80 60 L90 65 L100 60 Z" fill="#228B22" />
  <path d="M30 60 L20 50 L30 55 L40 50 Z" fill="#228B22" />
  <path d="M90 60 L80 50 L90 55 L100 50 Z" fill="#228B22" />
  <path d="M30 50 L20 40 L30 45 L40 40 Z" fill="#228B22" />
  <path d="M90 50 L80 40 L90 45 L100 40 Z" fill="#228B22" />
  <path d="M60 20 L50 10 L60 15 L70 10 Z" fill="#228B22" />
  <path d="M60 30 L40 20 L60 25 L80 20 Z" fill="#228B22" />
</svg> 